<svg width="43" height="43" viewBox="0 0 43 43" fill="none" xmlns="http://www.w3.org/2000/svg">
<path d="M39.4167 1.7915L39.4167 41.2082H10.75L10.75 37.6248H35.8334V30.4582H10.75L10.75 37.6248H7.16669L7.16669 5.37484H10.75V26.8748H35.8334V5.37484H10.75V1.7915H39.4167Z" fill="#EE4410"/>
<path d="M32.25 8.95817H14.3334V12.5415H32.25V8.95817Z" fill="#EE4410"/>
<path d="M10.75 37.6248L10.75 41.2082H39.4167L39.4167 1.7915H10.75V5.37484M10.75 37.6248H35.8334V30.4582H10.75L10.75 37.6248ZM10.75 37.6248H7.16669L7.16669 5.37484H10.75M10.75 5.37484V26.8748H35.8334V5.37484H10.75ZM14.3334 8.95817H32.25V12.5415H14.3334V8.95817Z" stroke="black" stroke-width="1.03519"/>
</svg>
