<svg width="35" height="37" viewBox="0 0 35 37" fill="none" xmlns="http://www.w3.org/2000/svg">
<path d="M25.7053 0.649414C30.0937 0.649414 33.6711 4.14798 33.6711 8.4873V23.9736C33.6711 25.1373 32.714 26.0615 31.5578 26.0615H7.56268C6.06837 26.0615 4.87616 27.2491 4.87616 28.6895C4.87642 30.1296 6.06854 31.3164 7.56268 31.3164H31.5578C32.714 31.3164 33.6711 32.2406 33.6711 33.4043C33.6709 34.5678 32.7139 35.4912 31.5578 35.4912H7.56268C3.75619 35.4912 0.649861 32.4569 0.649597 28.6895V8.4873C0.649597 4.14809 4.22709 0.649579 8.61542 0.649414H25.7053ZM29.1584 26.6016C30.3145 26.6016 31.2717 27.5258 31.2717 28.6895C31.2714 29.8529 30.3144 30.7763 29.1584 30.7764H7.56268C6.40667 30.7764 5.44966 29.8529 5.4494 28.6895C5.4494 27.5258 6.40651 26.6016 7.56268 26.6016H29.1584ZM8.61542 4.8252C6.53944 4.82536 4.87616 6.47545 4.87616 8.4873V22.4297C5.722 22.0751 6.63444 21.8889 7.56073 21.8867H29.4445V8.4873C29.4445 6.47535 27.7814 4.8252 25.7053 4.8252H8.61542Z" fill="#EE4410" stroke="black" stroke-width="1.3"/>
</svg>
