<svg width="57" height="49" viewBox="0 0 57 49" fill="none" xmlns="http://www.w3.org/2000/svg">
<g filter="url(#filter0_dd_157_124)">
<path fill-rule="evenodd" clip-rule="evenodd" d="M17.4912 7.29983H39.4421C41.6127 7.29447 43.6962 8.15298 45.233 9.68593C46.7697 11.2189 47.6333 13.3003 47.6333 15.4709V29.3919C47.6333 31.5625 46.7697 33.6439 45.233 35.1769C43.6962 36.7098 41.6127 37.5683 39.4421 37.563H17.4912C15.3206 37.5683 13.2371 36.7098 11.7004 35.1769C10.1636 33.6439 9.3 31.5625 9.3 29.3919V15.4709C9.3 13.3003 10.1636 11.2189 11.7004 9.68593C13.2371 8.15298 15.3206 7.29447 17.4912 7.29983ZM39.4421 34.5367C42.248 34.5374 44.5413 32.2979 44.607 29.4928V15.4709C44.5959 12.6263 42.2867 10.3261 39.4421 10.3261H17.4912C14.6466 10.3261 12.3374 12.6263 12.3263 15.4709V29.3919C12.3374 32.2366 14.6466 34.5367 17.4912 34.5367H39.4421Z" fill="#EE4410"/>
<path fill-rule="evenodd" clip-rule="evenodd" d="M20.2553 22.9963C20.2553 18.5393 23.8684 14.9262 28.3254 14.9262C32.7825 14.9262 36.3956 18.5393 36.3956 22.9963C36.3956 27.4534 32.7825 31.0665 28.3254 31.0665C23.8684 31.0665 20.2553 27.4534 20.2553 22.9963ZM23.2816 22.9963C23.2816 25.782 25.5398 28.0402 28.3254 28.0402C31.1111 28.0402 33.3693 25.782 33.3693 22.9963C33.3693 20.2107 31.1111 17.9525 28.3254 17.9525C25.5398 17.9525 23.2816 20.2107 23.2816 22.9963Z" fill="#EE4410"/>
<path d="M36.3956 13.8468C36.3956 13.3175 36.8247 12.8885 37.3539 12.8885H39.4724C40.0016 12.8885 40.4307 13.3175 40.4307 13.8468V15.9854C40.4307 16.5147 40.0016 16.9437 39.4724 16.9437H37.354C36.8247 16.9437 36.3956 16.5147 36.3956 15.9854V13.8468Z" fill="#EE4410"/>
<path d="M39.4426 6.64941V6.65039C41.785 6.64516 44.0331 7.57136 45.6916 9.22559C47.3505 10.8804 48.2834 13.1275 48.2834 15.4707V29.3916C48.2834 31.7349 47.3506 33.9818 45.6916 35.6367C44.0331 37.2911 41.7851 38.2171 39.4426 38.2119V38.2129H17.4914V38.2119C15.1487 38.2173 12.9001 37.2913 11.2414 35.6367C9.58251 33.9818 8.64961 31.7348 8.64961 29.3916V15.4707C8.64965 13.1275 9.58247 10.8804 11.2414 9.22559C12.9 7.5711 15.1487 6.64498 17.4914 6.65039V6.64941H39.4426ZM17.4914 10.9766C15.0048 10.9765 12.9865 12.987 12.9768 15.4736V29.3896L12.9826 29.6211C13.1122 31.9997 15.0825 33.8867 17.4914 33.8867H39.4426C41.8952 33.8872 43.8997 31.9295 43.9572 29.4775V15.4736L43.9504 15.2422C43.821 12.8635 41.8515 10.9768 39.4426 10.9766H17.4914ZM28.3254 14.2764C33.1413 14.2764 37.046 18.1802 37.0461 22.9961C37.0461 27.8121 33.1414 31.7168 28.3254 31.7168C23.5094 31.7168 19.6057 27.8121 19.6057 22.9961C19.6058 18.1802 23.5095 14.2764 28.3254 14.2764ZM28.3254 18.6025C25.8988 18.6026 23.932 20.5696 23.9318 22.9961C23.9318 25.4227 25.8988 27.3906 28.3254 27.3906C30.7521 27.3906 32.7189 25.4228 32.7189 22.9961C32.7188 20.5695 30.752 18.6025 28.3254 18.6025ZM39.4729 12.2383C40.3609 12.2385 41.0802 12.9586 41.0803 13.8467V15.9854C41.0803 16.8734 40.3609 17.5935 39.4729 17.5938H37.3537C36.4656 17.5936 35.7453 16.8735 35.7453 15.9854V13.8467C35.7454 12.9585 36.4656 12.2384 37.3537 12.2383H39.4729Z" stroke="black" stroke-width="1.3"/>
</g>
<defs>
<filter id="filter0_dd_157_124" x="0" y="0" width="56.9333" height="48.8628" filterUnits="userSpaceOnUse" color-interpolation-filters="sRGB">
<feFlood flood-opacity="0" result="BackgroundImageFix"/>
<feColorMatrix in="SourceAlpha" type="matrix" values="0 0 0 0 0 0 0 0 0 0 0 0 0 0 0 0 0 0 127 0" result="hardAlpha"/>
<feMorphology radius="2" operator="dilate" in="SourceAlpha" result="effect1_dropShadow_157_124"/>
<feOffset dy="2"/>
<feGaussianBlur stdDeviation="3"/>
<feColorMatrix type="matrix" values="0 0 0 0 0 0 0 0 0 0 0 0 0 0 0 0 0 0 0.15 0"/>
<feBlend mode="normal" in2="BackgroundImageFix" result="effect1_dropShadow_157_124"/>
<feColorMatrix in="SourceAlpha" type="matrix" values="0 0 0 0 0 0 0 0 0 0 0 0 0 0 0 0 0 0 127 0" result="hardAlpha"/>
<feOffset dy="1"/>
<feGaussianBlur stdDeviation="1"/>
<feColorMatrix type="matrix" values="0 0 0 0 0 0 0 0 0 0 0 0 0 0 0 0 0 0 0.3 0"/>
<feBlend mode="normal" in2="effect1_dropShadow_157_124" result="effect2_dropShadow_157_124"/>
<feBlend mode="normal" in="SourceGraphic" in2="effect2_dropShadow_157_124" result="shape"/>
</filter>
</defs>
</svg>
