<svg width="54" height="54" viewBox="0 0 54 54" fill="none" xmlns="http://www.w3.org/2000/svg">
<path fill-rule="evenodd" clip-rule="evenodd" d="M4.50001 45L4.5 9H36V18H40.5V22.5H36V31.5H40.5V36H36V45L4.50001 45ZM9.00001 13.5L31.5 13.5L31.5 40.5L9.00001 40.5L9.00001 13.5Z" fill="#EE4410"/>
<path d="M45 36H40.5V40.5H45L45 45H49.5L49.5 9L45 9V13.5L40.5 13.5V18L45 18V36Z" fill="#EE4410"/>
<path d="M40.5 18H36V9H4.5L4.50001 45L36 45V36H40.5M40.5 18V22.5H36V31.5H40.5V36M40.5 18V13.5L45 13.5V9L49.5 9L49.5 45H45L45 40.5H40.5V36M40.5 18L45 18V36H40.5M31.5 13.5L9.00001 13.5L9.00001 40.5L31.5 40.5L31.5 13.5Z" stroke="black" stroke-width="1.3"/>
</svg>
