<svg width="54" height="54" viewBox="0 0 54 54" fill="none" xmlns="http://www.w3.org/2000/svg">
<path d="M24.75 6.75H29.25V11.25H24.75V6.75Z" fill="#EE4410"/>
<path d="M15.75 15.75V11.25H24.75V15.75H15.75Z" fill="#EE4410"/>
<path d="M6.75 20.25V15.75H15.75V20.25H6.75Z" fill="#EE4410"/>
<path d="M6.75 24.75H2.25V20.25H6.75V24.75Z" fill="#EE4410"/>
<path fill-rule="evenodd" clip-rule="evenodd" d="M15.75 29.25V24.75H6.75V29.25H11.25V42.75H15.75V47.25H38.25V42.75H42.75V29.25H47.25V38.25H51.75V29.25H47.25V24.75H51.75V20.25H47.25V15.75H38.25V11.25H29.25V15.75H38.25V20.25H47.25V24.75H38.25V29.25H29.25V33.75H24.75V29.25H15.75ZM15.75 33.75V42.75H38.25V33.75H29.25V38.25H24.75V33.75H15.75Z" fill="#EE4410"/>
<path d="M29.25 11.25V6.75H24.75V11.25M29.25 11.25H24.75M29.25 11.25V15.75H38.25M29.25 11.25H38.25V15.75M24.75 11.25V15.75H15.75M24.75 11.25H15.75V15.75M15.75 15.75V20.25H6.75M15.75 15.75H6.75V20.25M6.75 20.25H2.25V24.75H6.75M6.75 20.25V24.75M6.75 24.75V29.25H11.25V42.75H15.75M6.75 24.75H15.75V29.25H24.75V33.75M15.75 42.75V47.25H38.25V42.75M15.75 42.75V33.75H24.75M15.75 42.75H38.25M38.25 42.75H42.75V29.25H47.25M38.25 42.75V33.75H29.25M47.25 29.25H51.75V38.25H47.25V29.25ZM47.25 29.25V24.75M47.25 24.75H51.75V20.25H47.25M47.25 24.75V20.25M47.25 24.75H38.25V29.25H29.25V33.75M47.25 20.25V15.75H38.25M47.25 20.25H38.25V15.75M29.25 33.75H24.75M29.25 33.75V38.25H24.75V33.75" stroke="black" stroke-width="1.3"/>
</svg>
