<svg width="56" height="46" viewBox="0 0 56 46" fill="none" xmlns="http://www.w3.org/2000/svg">
<path d="M23.9647 4.33057C25.9619 2.80174 29.0014 2.80214 30.9988 4.33057L46.7615 13.5317H46.7625C49.3836 15.0632 51.0014 17.5982 51.0037 20.3599V34.0288C50.9969 36.4144 49.8493 38.6697 47.868 40.3091C45.8905 41.9452 43.234 42.8453 40.4861 42.8403V42.8413H14.4793V42.8403C11.7311 42.8455 9.0742 41.9455 7.0965 40.3091C5.11521 38.6697 3.96759 36.4144 3.96075 34.0288V20.3599C3.96307 17.5981 5.58173 15.0632 8.20294 13.5317L23.9647 4.33057ZM27.4822 7.48291C27.2745 7.48294 27.0948 7.55371 26.9803 7.65088L26.9412 7.68408L26.8963 7.71143L26.6424 7.86475L26.6346 7.86963L10.8406 17.0874L10.8416 17.0884C9.50075 17.8736 8.74633 19.1067 8.71954 20.3745V34.0239L8.72736 34.2476C8.79875 35.3624 9.36589 36.4452 10.3699 37.2739C11.4445 38.1608 12.9211 38.6712 14.4774 38.6665H40.4881C42.0441 38.6711 43.5201 38.1607 44.5945 37.2739C45.6648 36.3906 46.2388 35.2187 46.2449 34.0269V20.3745L46.2322 20.1372C46.1223 18.9542 45.38 17.8245 44.1229 17.0884V17.0874L28.3309 7.86963L28.3221 7.86475L28.0682 7.71143L28.0242 7.68408L27.9842 7.65088C27.8696 7.55369 27.69 7.48291 27.4822 7.48291ZM11.4676 20.2583C12.2465 19.9846 13.1473 20.088 13.8231 20.5513L26.2215 27.8706L26.2899 27.9106L26.3465 27.9653C26.5639 28.1785 26.9045 28.328 27.2947 28.3413C27.6848 28.3546 28.0445 28.2291 28.2889 28.0259L28.3309 27.9907L28.3777 27.9634L41.1512 20.5464L41.1522 20.5454C42.1178 19.9881 43.4313 20.1075 44.2352 20.8667L44.3895 21.0278L44.4041 21.0444L44.4178 21.063C45.1534 22.0426 44.8101 23.3021 43.8006 23.9233L43.7938 23.9282L43.7859 23.9321L31.2127 31.231C30.176 32.0565 28.8253 32.5199 27.4266 32.5493H27.4129C25.9289 32.5486 24.4841 32.0864 23.3641 31.2339L11.1902 24.0151C10.4435 23.6478 9.92252 22.9175 9.98126 22.0679C10.0407 21.2103 10.6696 20.5389 11.4676 20.2583Z" fill="#EE4410" stroke="black" stroke-width="1.3"/>
</svg>
